HIERARCHY
ROOT Hips
{
	OFFSET	0.00	0.00	0.00
	CHANNELS 6 Xposition Yposition Zposition Zrotation Xrotation Yrotation
	JOINT LeftUpLeg
	{
		OFFSET	 0.126116	-0.014019	-0.065224
		CHANNELS 3 Zrotation Xrotation Yrotation
		JOINT LeftLeg
		{
			OFFSET	 0.000000	 0.000000	 0.569914
			CHANNELS 3 Zrotation Xrotation Yrotation
			JOINT LeftFoot
			{
				OFFSET	 0.000000	 0.000000	 0.544423
				CHANNELS 3 Zrotation Xrotation Yrotation
				JOINT LeftToeBase
				{
					OFFSET	 0.000000	 0.000000	 0.207117
					CHANNELS 3 Zrotation Xrotation Yrotation
					End Site
					{
						OFFSET	 0.000000	 0.000000	 0.207117
					}
				}
			}
		}
	}
	JOINT RightUpLeg
	{
		OFFSET	-0.124023	-0.008373	-0.065224
		CHANNELS 3 Zrotation Xrotation Yrotation
		JOINT RightLeg
		{
			OFFSET	 0.000000	 0.000000	 0.570047
			CHANNELS 3 Zrotation Xrotation Yrotation
			JOINT RightFoot
			{
				OFFSET	 0.000000	 0.000000	 0.544354
				CHANNELS 3 Zrotation Xrotation Yrotation
				JOINT RightToeBase
				{
					OFFSET	 0.000000	 0.000000	 0.207540
					CHANNELS 3 Zrotation Xrotation Yrotation
					End Site
					{
						OFFSET	 0.000000	 0.000000	 0.207540
					}
				}
			}
		}
	}
	JOINT Spine
	{
		OFFSET	 0.000184	-0.007763	 0.117403
		CHANNELS 3 Zrotation Xrotation Yrotation
		JOINT Spine1
		{
			OFFSET	 0.000000	 0.000000	 0.137269
			CHANNELS 3 Zrotation Xrotation Yrotation
			JOINT Spine2
			{
				OFFSET	 0.000000	 0.000000	 0.156879
				CHANNELS 3 Zrotation Xrotation Yrotation
				JOINT LeftShoulder
				{
					OFFSET	 0.080501	-0.002496	 0.160144
					CHANNELS 3 Zrotation Xrotation Yrotation
					JOINT LeftArm
					{
						OFFSET	 0.000000	 0.000000	 0.164363
						CHANNELS 3 Zrotation Xrotation Yrotation
						JOINT LeftForeArm
						{
							OFFSET	 0.000000	 0.000000	 0.364576
							CHANNELS 3 Zrotation Xrotation Yrotation
							JOINT LeftHand
							{
								OFFSET	 0.000000	 0.000000	 0.360812
								CHANNELS 3 Zrotation Xrotation Yrotation
								JOINT LeftHandIndex1
								{
									OFFSET	 0.000000	 0.000000	 0.086006
									CHANNELS 3 Zrotation Xrotation Yrotation
									JOINT LeftHandIndex2
									{
										OFFSET	 0.000000	 0.000000	 0.047237
										CHANNELS 3 Zrotation Xrotation Yrotation
										JOINT LeftHandIndex3
										{
											OFFSET	-0.004284	-0.000551	 0.038165
											CHANNELS 3 Zrotation Xrotation Yrotation
											End Site
											{
												OFFSET	-0.004284	-0.000551	 0.038165
											}
										}
									}
								}
							}
						}
					}
				}
				JOINT Neck
				{
					OFFSET	 0.000000	 0.000000	 0.176489
					CHANNELS 3 Zrotation Xrotation Yrotation
					JOINT Head
					{
						OFFSET	 0.000000	-0.001747	 0.077940
						CHANNELS 3 Zrotation Xrotation Yrotation
						End Site
						{
							OFFSET	 0.000000	-0.001747	 0.077940
						}
					}
				}
				JOINT RightShoulder
				{
					OFFSET	-0.080363	 0.000306	 0.159706
					CHANNELS 3 Zrotation Xrotation Yrotation
					JOINT RightArm
					{
						OFFSET	 0.000000	 0.000000	 0.164196
						CHANNELS 3 Zrotation Xrotation Yrotation
						JOINT RightForeArm
						{
							OFFSET	 0.000000	 0.000000	 0.365611
							CHANNELS 3 Zrotation Xrotation Yrotation
							JOINT RightHand
							{
								OFFSET	 0.000000	 0.000000	 0.360648
								CHANNELS 3 Zrotation Xrotation Yrotation
								JOINT RightHandIndex1
								{
									OFFSET	 0.000000	 0.000000	 0.069977
									CHANNELS 3 Zrotation Xrotation Yrotation
									JOINT RightHandIndex2
									{
										OFFSET	 0.000000	 0.000000	 0.052305
										CHANNELS 3 Zrotation Xrotation Yrotation
										JOINT RightHandIndex3
										{
											OFFSET	 0.009002	-0.000782	 0.042196
											CHANNELS 3 Zrotation Xrotation Yrotation
											End Site
											{
												OFFSET	 0.009002	-0.000782	 0.042196
											}
										}
									}
								}
							}
						}
					}
				}
			}
		}
	}
}
MOTION
Frames:    4
Frame Time: 0.03333334
-0.413384	 0.200465	 1.220932	-176.572400	 7.951797	 13.986350	 28.122180	-9.319762	 172.261100	-8.544665	-42.548810	-6.185949	 136.923100	 71.099430	-151.177800	-2.385833	 28.452760	 0.000004	-16.037340	-40.804940	 156.814500	 5.769628	-52.170330	 3.356734	-8.567979	 76.590090	 26.030430	 2.384659	 28.388700	-0.000001	 42.710350	-19.321530	 4.045925	 46.177140	 19.305450	 16.787400	-9.491374	-1.826677	-18.195800	-91.776140	 78.527330	 180.000000	-2.192385	 34.524500	-0.225795	-1.840523	-3.066498	-87.278770	 4.285874	-22.356810	-0.736149	-4.130319	 21.525730	 0.991547	-5.167930	 0.731704	 3.519349	-1.378229	 35.397820	-2.634230	-18.298070	 7.214841	 7.643084	-23.925470	-21.642160	-15.732780	 89.782040	 78.203870	-180.000000	 62.714940	 0.339015	-11.814030	-15.184900	-9.558834	 45.929410	-32.994680	-0.064420	-87.002620	 5.716227	 19.173190	-3.685159	 5.027444	 0.246877	-9.377972	-2.350882	 35.473990	 5.254307
-0.417901	 0.209430	 1.223127	-175.630200	 7.594827	 13.080640	 28.974930	-7.079694	 172.482400	-8.446878	-40.526120	-5.881529	 136.410600	 71.421650	-150.336000	-2.385833	 28.452760	 0.000004	-14.965570	-39.866230	 158.730000	 6.191232	-52.249300	 3.694422	-7.694540	 77.498050	 24.415890	 2.384659	 28.388700	-0.000001	 40.356680	-17.516670	 3.761027	 44.134000	 17.865390	 18.276450	-8.834222	-1.320991	-17.680690	-91.776100	 78.527400	 179.999900	-3.723913	 33.404760	 4.160944	-1.895090	-3.164125	-88.350470	 4.803423	-23.079480	-0.550795	-4.130319	 21.525730	 0.991547	-5.167930	 0.731704	 3.519349	-1.378229	 35.397820	-2.634230	-17.666890	 7.794214	 7.762836	-23.703300	-22.364480	-16.177840	 89.782160	 78.203900	 179.999900	 61.960880	-5.260521	-7.896044	-15.347600	-7.025731	 36.771640	-38.244480	-0.718444	-78.735390	 5.716227	 19.173190	-3.685159	 5.027444	 0.246877	-9.377972	-2.350882	 35.473990	 5.254307
-0.421587	 0.216270	 1.225052	-174.814400	 7.084673	 11.681940	 29.592780	-4.486857	 173.227000	-8.620822	-38.156280	-5.703048	 135.226200	 71.204420	-148.610500	-2.385833	 28.452760	 0.000004	-12.959920	-39.522620	 161.341700	 6.136445	-52.572510	 3.666846	-3.994466	 78.138110	 20.260240	 2.384659	 28.388700	-0.000001	 38.579830	-15.599850	 4.147344	 42.443940	 16.540680	 19.514230	-8.283872	-0.832659	-17.241380	-91.776200	 78.527350	-180.000000	-5.441148	 32.715480	 7.636584	-1.946450	-3.169236	-89.280460	 5.164279	-24.111120	-0.386653	-4.130319	 21.525730	 0.991547	-5.167930	 0.731704	 3.519349	-1.378229	 35.397820	-2.634230	-17.331580	 7.674114	 8.476002	-23.312510	-21.988560	-17.144290	 89.782170	 78.203890	 179.999900	 58.973530	-8.414063	-4.774218	-15.372460	-5.170193	 28.770930	-41.127640	-3.334735	-74.043780	 5.716227	 19.173190	-3.685159	 5.027444	 0.246877	-9.377972	-2.350882	 35.473990	 5.254307
-0.424000	 0.221780	 1.226625	-173.805700	 6.439664	 11.146530	 30.204130	-2.594779	 172.960100	-8.776217	-36.156500	-5.541098	 135.290400	 71.052630	-148.208800	-2.385833	 28.452760	 0.000004	-11.727600	-38.881690	 162.760100	 6.127790	-52.645260	 3.663497	-0.978411	 78.889060	 16.623830	 2.384659	 28.388700	-0.000001	 36.462710	-14.299240	 3.858567	 41.111000	 15.021240	 20.749370	-7.662202	-0.215956	-16.980170	-91.776210	 78.527380	-180.000000	-7.416722	 32.654910	 10.950680	-2.002984	-2.941063	-90.327430	 5.457039	-25.454340	-0.311221	-4.130319	 21.525730	 0.991547	-5.167930	 0.731704	 3.519349	-1.378229	 35.397820	-2.634230	-16.790930	 7.677211	 8.191968	-22.801150	-22.429570	-16.013900	 89.782100	 78.203920	-180.000000	 56.049150	-10.281690	-3.908654	-15.538630	-4.539937	 25.346540	-43.357190	-5.501197	-71.677210	 5.716227	 19.173190	-3.685159	 5.027444	 0.246877	-9.377972	-2.350882	 35.473990	 5.254307
